<svg width="131" height="25" viewBox="0 0 131 25" fill="none" xmlns="http://www.w3.org/2000/svg">
<path d="M4.49251 7.53672C5.99756 7.53672 7.2144 6.41595 7.2144 5.00697C7.2144 3.59799 5.99756 2.44519 4.49251 2.44519C3.01949 2.44519 1.80265 3.59799 1.80265 5.00697C1.80265 6.41595 3.01949 7.53672 4.49251 7.53672ZM6.70205 20.6658V8.97772L0.105469 11.0271V11.3153C1.7386 11.3153 2.41107 11.7957 2.41107 13.3968V20.7299C2.41107 22.299 1.80265 23.2917 0.169513 23.2917V23.7079H8.91158V23.2917C7.31047 23.2917 6.70205 22.299 6.70205 20.6658Z" fill="#161616"/>
<path d="M24.1942 20.6338V0.972168L17.5656 3.02159V3.30979C19.1987 3.30979 19.8712 3.82215 19.8712 5.42326V10.4187C19.583 9.84232 18.7504 8.9457 17.2133 8.9457C13.9791 8.9457 10.3926 12.0519 10.3926 17.3675C10.3926 20.9861 12.6021 23.9961 15.8684 23.9961C17.8538 23.9961 19.3588 22.5872 19.8712 21.5625V21.6585L19.9993 23.6759H26.4037V23.2596C24.7706 23.2596 24.1942 22.2669 24.1942 20.6338ZM17.9499 22.0748C15.9965 22.0748 14.7797 19.3209 14.7797 15.6383C14.7797 12.8204 15.9325 9.71424 17.6937 9.71424C18.8465 9.71424 19.8712 11.3153 19.8712 13.1726V20.2495C19.7431 20.7939 19.2307 22.0748 17.9499 22.0748Z" fill="#161616"/>
<path d="M49.7149 11.4114C49.7149 11.4114 42.4779 7.95301 42.3498 7.88897C41.197 7.34459 39.788 6.41595 39.788 4.52663C39.788 3.11766 40.8447 2.06092 42.702 2.06092C44.5273 2.06092 45.7441 3.02159 46.8649 4.23843C47.7295 5.1991 48.5621 6.19179 49.4907 7.05639C50.0671 7.63279 50.9317 8.17717 51.9565 8.3693H52.0845C51.4441 6.19179 50.7076 3.4699 50.9638 1.26037H50.7396C49.843 1.70868 49.4587 2.0289 48.2099 2.0289C46.4486 2.0289 44.9116 1.26037 42.7341 1.26037C39.6599 1.26037 36.938 3.88619 36.938 7.12044C36.938 10.1946 39.4037 12.0519 40.9728 12.7884C41.1329 12.8524 46.993 15.6704 47.3453 15.8305C48.0818 16.1827 50.5155 17.1434 50.5155 19.6411C50.5155 21.9147 48.6902 23.1315 46.7368 23.1315C43.2144 23.1315 42.3178 15.9906 35.5291 15.9906C36.6819 18.3923 36.8099 21.2743 36.5538 24.0282H36.874C37.7066 23.1956 38.6993 22.6832 39.724 22.6832C41.6133 22.6832 43.7908 24.0282 46.6728 24.0282C50.1952 24.0282 53.4615 21.3063 53.4615 17.5917C53.4615 14.8378 51.4761 12.244 49.7149 11.4114Z" fill="#161616"/>
<path d="M65.1981 20.9861C65.006 21.4664 64.6217 22.395 63.533 22.395C62.6364 22.395 61.9319 21.7866 61.9319 20.5057V9.87435H64.9099V9.26592H61.9319V3.85417H61.4836C60.683 6.03168 58.2813 9.13784 55.1752 9.26592V9.87435H57.6409V20.5057C57.6409 22.5872 58.7937 23.9961 61.5476 23.9961C63.6611 23.9961 65.1661 22.5551 65.6785 20.9861H65.1981Z" fill="#161616"/>
<path d="M83.051 20.7619V8.97772L76.4545 10.9951V11.3153C78.0876 11.3153 78.7601 11.7957 78.7601 13.3968L78.728 21.0821L78.3758 21.2743C77.7353 21.6265 76.8387 22.299 75.814 22.299C74.4691 22.299 74.0208 21.3383 74.0208 19.8653V8.97772L67.4242 10.9951V11.3153C69.0573 11.3153 69.7298 11.7957 69.7298 13.3968V20.954C69.7298 22.6192 70.7865 23.9961 72.8359 23.9961C74.5972 23.9961 76.1983 23.1956 78.728 21.8186V23.6759H85.0684V23.2596C83.4353 23.2596 83.051 22.395 83.051 20.7619Z" fill="#161616"/>
<path d="M100.835 20.6338V0.972168L94.2063 3.02159V3.30979C95.8394 3.30979 96.5119 3.82215 96.5119 5.42326V10.4187C96.2237 9.84232 95.3911 8.9457 93.854 8.9457C90.6198 8.9457 87.0333 12.0519 87.0333 17.3675C87.0333 20.9861 89.2428 23.9961 92.5091 23.9961C94.4945 23.9961 95.9995 22.5872 96.5119 21.5625V21.6585L96.64 23.6759H103.044V23.2596C101.411 23.2596 100.835 22.2669 100.835 20.6338ZM94.5905 22.0748C92.6372 22.0748 91.4203 19.3209 91.4203 15.6383C91.4203 12.8204 92.5731 9.71424 94.3344 9.71424C95.4872 9.71424 96.5119 11.3153 96.5119 13.1726V20.2495C96.3838 20.7939 95.8714 22.0748 94.5905 22.0748Z" fill="#161616"/>
<path d="M109.284 7.53672C110.789 7.53672 112.006 6.41595 112.006 5.00697C112.006 3.59799 110.789 2.44519 109.284 2.44519C107.811 2.44519 106.594 3.59799 106.594 5.00697C106.594 6.41595 107.811 7.53672 109.284 7.53672ZM111.494 20.6658V8.97772L104.897 11.0271V11.3153C106.53 11.3153 107.203 11.7957 107.203 13.3968V20.7299C107.203 22.299 106.594 23.2917 104.961 23.2917V23.7079H113.703V23.2917C112.102 23.2917 111.494 22.299 111.494 20.6658Z" fill="#161616"/>
<path d="M123.12 8.9457C119.053 8.9457 115.37 11.7957 115.37 16.4709C115.37 21.1782 119.053 23.9961 123.12 23.9961C127.218 23.9961 130.901 21.1782 130.901 16.4709C130.901 11.7957 127.218 8.9457 123.12 8.9457ZM123.12 23.2596C121.102 23.2596 119.981 20.6018 119.981 16.4709C119.981 12.276 121.102 9.68221 123.12 9.68221C125.137 9.68221 126.258 12.276 126.258 16.4709C126.258 20.6658 125.137 23.2596 123.12 23.2596Z" fill="#161616"/>
<circle cx="4.52905" cy="4.86816" r="3" fill="#D3A265"/>
</svg>
